# xmcd
#
# Track frame offsets:
#	150
#	23966
#	38804
#	54605
#	70032
#	88441
#	110165
#	123590
#	143909
#	166701
#	182338
#	199144
#	214632
#	237324
#	263025
#	286432
#	302900
#
# Disc length: 4259 seconds
#
# Revision: 0
# Processed by: cddbd v1.5.1PL0 Copyright (c) Steve Scherf et al.
# Submitted via: dBpowerAMP V4.0
#
DISCID=fc10a111
DTITLE=KKL - VARIADO
DYEAR=2005
DGENRE=2005
TTITLE0=INTRO
TTITLE1=UN LOCO QUE TE MIRA-MARC ANTHONY
TTITLE2=SOMBRA LOCA-GILBERTO SANTA ROSA
TTITLE3=TE AMABA TANTO
TTITLE4=SI ME VEZ LLORAR
TTITLE5=ME HA ECHADO AL OLVIDO
TTITLE6=VALIO LA PENA
TTITLE7=DESEPERAdo
TTITLE8=DFGHJK
TTITLE9=VHHJJKJ'
TTITLE10=GHJJKK
TTITLE11=HKLÖLÖ
TTITLE12=HKKJLKLLÖ
TTITLE13=HJJKLKLÖ
TTITLE14=JKJK'
TTITLE15=JKLÖÄ
TTITLE16=JKLLÖÖ
EXTD=
EXTT0=
EXTT1=
EXTT2=
EXTT3=
EXTT4=
EXTT5=
EXTT6=
EXTT7=
EXTT8=
EXTT9=
EXTT10=
EXTT11=
EXTT12=
EXTT13=
EXTT14=
EXTT15=
EXTT16=
PLAYORDER=
